# xmcd
#
# Track frame offsets:
# 150
# 18835
# 27781
# 38107
# 52115
# 65778
# 77068
# 93550
# 121310
# 142755
# 163323
# 176749
# 202400
# 213291
# 224055
# 235997
# 249046
# 268405
# 292747
# 303738
# 314506
# 328208
# 340094
#
# Disc length: 4686 seconds
#
#
# Revision: 0
# Processed by: cddbd v1.4PL0 Copyright (c) Steve Scherf et al.
# Submitted via: FreeRIP 2.30 
#
DISCID=66124c17
DTITLE=Sean Wilson - Golden Dreams  Disk 2
DYEAR=2001
DGENRE=Irish
TTITLE0=Working man
TTITLE1=Let's Turn Back The Years
TTITLE2=Everbody's Somebody's Fool
TTITLE3=A Full Time Fool
TTITLE4=Home To Aherlow
TTITLE5=Here I Am In love Again
TTITLE6=Mow I'm Easy
TTITLE7=The Town I Love So Well
TTITLE8=The Fields Of Athenry
TTITLE9=Streets Of New York
TTITLE10=The Shores Of Lough Neath
TTITLE11=MED  Any tipperary town - Moonlight in mayo - The homes of donegal - Bouys from the county armagh
TTITLE12=Ring Of Fire
TTITLE13=If I Kiss You Will You Go Away
TTITLE14=I Wouldn't Change You If I Could
TTITLE15=Red Roses Round The Half Door 
TTITLE16=MED  The same sweet girl - The gambler - On the wall - Life is what you make it - Try a little kindness 
TTITLE17=MED  Daine - Papa's wagon - Wrong road again - Mamma tried - The door is always open 
TTITLE18=The Wine Flowed Freely
TTITLE19=Just Someone I Used To Know
TTITLE20=The Picture Of My World
TTITLE21=Old Ireland Is The Only Place For Me
TTITLE22=South Of The Border
EXTD=Traks 12 - 17 - 18  Are Medleys 
EXTT0=
EXTT1=
EXTT2=
EXTT3=
EXTT4=
EXTT5=
EXTT6=
EXTT7=
EXTT8=
EXTT9=
EXTT10=
EXTT11=
EXTT12=
EXTT13=
EXTT14=
EXTT15=
EXTT16=
EXTT17=
EXTT18=
EXTT19=
EXTT20=
EXTT21=
EXTT22=
PLAYORDER=
